<svg xmlns="http://www.w3.org/2000/svg" viewBox="0 0 600 400" width="600" height="400">
<defs>
  <linearGradient id="bg" x1="0%" y1="0%" x2="100%" y2="100%">
    <stop offset="0%" stop-color="#0B1B3A"/>
    <stop offset="100%" stop-color="#1E3A8A"/>
  </linearGradient>
  <pattern id="dots" x="0" y="0" width="20" height="20" patternUnits="userSpaceOnUse">
    <circle cx="2" cy="2" r="1" fill="#93C5FD" opacity="0.18"/>
  </pattern>
</defs>
<rect width="600" height="400" fill="url(#bg)"/>
<rect width="600" height="400" fill="url(#dots)"/>
<g transform="translate(30,30)">
<rect width="118" height="32" rx="16" fill="#3B82F6" opacity="0.9"/>
<text x="59" y="21" font-family="system-ui,sans-serif" font-size="13" font-weight="700" fill="#FFFFFF" text-anchor="middle" letter-spacing="0.5">INFOGÉRANCE</text>
</g>
<g transform="translate(300,210)">
  <rect x="-100" y="-100" width="200" height="200" rx="14" fill="#fff"/>
  <line x1="-100" y1="-60" x2="100" y2="-60" stroke="#E5E7EB" stroke-width="2"/>
  <!-- items -->
  <g transform="translate(0,-80)">
    <circle cx="-70" cy="0" r="14" fill="#10B981"/>
    <path d="M -77,0 L -73,5 L -63,-5" stroke="#fff" stroke-width="3.5" fill="none" stroke-linecap="round" stroke-linejoin="round"/>
    <line x1="-45" y1="0" x2="80" y2="0" stroke="#0B1B3A" stroke-width="4" stroke-linecap="round"/>
  </g>
  <g transform="translate(0,-35)">
    <circle cx="-70" cy="0" r="14" fill="#10B981"/>
    <path d="M -77,0 L -73,5 L -63,-5" stroke="#fff" stroke-width="3.5" fill="none" stroke-linecap="round" stroke-linejoin="round"/>
    <line x1="-45" y1="0" x2="60" y2="0" stroke="#0B1B3A" stroke-width="4" stroke-linecap="round"/>
  </g>
  <g transform="translate(0,15)">
    <circle cx="-70" cy="0" r="14" fill="#10B981"/>
    <path d="M -77,0 L -73,5 L -63,-5" stroke="#fff" stroke-width="3.5" fill="none" stroke-linecap="round" stroke-linejoin="round"/>
    <line x1="-45" y1="0" x2="75" y2="0" stroke="#0B1B3A" stroke-width="4" stroke-linecap="round"/>
  </g>
  <g transform="translate(0,65)">
    <circle cx="-70" cy="0" r="14" fill="none" stroke="#D1D5DB" stroke-width="3"/>
    <line x1="-45" y1="0" x2="50" y2="0" stroke="#D1D5DB" stroke-width="4" stroke-linecap="round"/>
  </g>
</g>
</svg>