<svg xmlns="http://www.w3.org/2000/svg" viewBox="0 0 600 400" width="600" height="400">
<defs>
  <linearGradient id="bg" x1="0%" y1="0%" x2="100%" y2="100%">
    <stop offset="0%" stop-color="#0B1B3A"/>
    <stop offset="100%" stop-color="#1E3A8A"/>
  </linearGradient>
  <pattern id="dots" x="0" y="0" width="20" height="20" patternUnits="userSpaceOnUse">
    <circle cx="2" cy="2" r="1" fill="#93C5FD" opacity="0.18"/>
  </pattern>
</defs>
<rect width="600" height="400" fill="url(#bg)"/>
<rect width="600" height="400" fill="url(#dots)"/>
<g transform="translate(30,30)">
<rect width="134" height="32" rx="16" fill="#EF4444" opacity="0.9"/>
<text x="67" y="21" font-family="system-ui,sans-serif" font-size="13" font-weight="700" fill="#FFFFFF" text-anchor="middle" letter-spacing="0.5">CYBERSÉCURITÉ</text>
</g>
<g transform="translate(300,210)">
  <path d="M 0,-110 L 80,-80 L 80,20 Q 80,80 0,110 Q -80,80 -80,20 L -80,-80 Z" fill="none" stroke="#fff" stroke-width="6"/>
  <path d="M 0,-110 L 80,-80 L 80,20 Q 80,80 0,110 Q -80,80 -80,20 L -80,-80 Z" fill="#fff" opacity="0.08"/>
  <rect x="-32" y="-15" width="64" height="50" rx="6" fill="#fff"/>
  <path d="M -20,-15 L -20,-30 Q -20,-45 0,-45 Q 20,-45 20,-30 L 20,-15" fill="none" stroke="#fff" stroke-width="6"/>
  <circle cx="0" cy="10" r="6" fill="#0B1B3A"/>
  <line x1="0" y1="10" x2="0" y2="22" stroke="#0B1B3A" stroke-width="4"/>
</g>
</svg>