<svg xmlns="http://www.w3.org/2000/svg" viewBox="0 0 600 400" width="600" height="400">
<defs>
  <linearGradient id="bg" x1="0%" y1="0%" x2="100%" y2="100%">
    <stop offset="0%" stop-color="#312E81"/>
    <stop offset="100%" stop-color="#3730A3"/>
  </linearGradient>
  <pattern id="dots" x="0" y="0" width="20" height="20" patternUnits="userSpaceOnUse">
    <circle cx="2" cy="2" r="1" fill="#93C5FD" opacity="0.18"/>
  </pattern>
</defs>
<rect width="600" height="400" fill="url(#bg)"/>
<rect width="600" height="400" fill="url(#dots)"/>
<g transform="translate(30,30)">
<rect width="102" height="32" rx="16" fill="#6366F1" opacity="0.9"/>
<text x="51" y="21" font-family="system-ui,sans-serif" font-size="13" font-weight="700" fill="#FFFFFF" text-anchor="middle" letter-spacing="0.5">INDUSTRIE</text>
</g>
<g transform="translate(300,230)">
  <!-- usine -->
  <g fill="#fff">
    <polygon points="-110,30 -110,-30 -80,-30 -80,-10 -50,-30 -50,-10 -20,-30 -20,30"/>
    <rect x="20" y="-50" width="80" height="80"/>
    <rect x="40" y="-90" width="20" height="40"/>
    <rect x="70" y="-100" width="20" height="50"/>
  </g>
  <!-- fenêtres usine -->
  <g fill="#0B1B3A">
    <rect x="30" y="-40" width="14" height="14"/>
    <rect x="50" y="-40" width="14" height="14"/>
    <rect x="70" y="-40" width="14" height="14"/>
    <rect x="30" y="-20" width="14" height="14"/>
    <rect x="50" y="-20" width="14" height="14"/>
    <rect x="70" y="-20" width="14" height="14"/>
  </g>
  <!-- bouclier flottant -->
  <g transform="translate(-50,-90)">
    <path d="M 0,-30 L 22,-22 L 22,6 Q 22,22 0,30 Q -22,22 -22,6 L -22,-22 Z" fill="#10B981"/>
    <path d="M -10,0 L -3,8 L 10,-5" stroke="#fff" stroke-width="4" fill="none" stroke-linecap="round" stroke-linejoin="round"/>
  </g>
</g>
</svg>