<svg xmlns="http://www.w3.org/2000/svg" viewBox="0 0 600 400" width="600" height="400">
<defs>
  <linearGradient id="bg" x1="0%" y1="0%" x2="100%" y2="100%">
    <stop offset="0%" stop-color="#065F46"/>
    <stop offset="100%" stop-color="#0F766E"/>
  </linearGradient>
  <pattern id="dots" x="0" y="0" width="20" height="20" patternUnits="userSpaceOnUse">
    <circle cx="2" cy="2" r="1" fill="#93C5FD" opacity="0.18"/>
  </pattern>
</defs>
<rect width="600" height="400" fill="url(#bg)"/>
<rect width="600" height="400" fill="url(#dots)"/>
<g transform="translate(30,30)">
<rect width="110" height="32" rx="16" fill="#10B981" opacity="0.9"/>
<text x="55" y="21" font-family="system-ui,sans-serif" font-size="13" font-weight="700" fill="#FFFFFF" text-anchor="middle" letter-spacing="0.5">TÉLÉPHONIE</text>
</g>
<g transform="translate(300,210)">
  <ellipse cx="0" cy="-50" rx="90" ry="35" fill="#fff" opacity="0.18"/>
  <ellipse cx="-20" cy="-60" rx="60" ry="22" fill="#fff" opacity="0.3"/>
  <path d="M -50,30 Q -50,-15 0,-15 Q 50,-15 50,30 L 50,55 Q 50,75 30,75 L 20,75 Q 10,75 10,65 L 10,45 Q 10,35 20,35 L 35,35 L 35,30 Q 35,5 0,5 Q -35,5 -35,30 L -35,35 L -20,35 Q -10,35 -10,45 L -10,65 Q -10,75 -20,75 L -30,75 Q -50,75 -50,55 Z" fill="#fff"/>
</g>
<g stroke="#fff" stroke-width="3" fill="none" opacity="0.5">
  <path d="M 460,140 Q 470,150 460,160"/>
  <path d="M 475,130 Q 495,150 475,170"/>
  <path d="M 490,120 Q 520,150 490,180"/>
</g>
</svg>